<?xml version="1.0" encoding="UTF-8" standalone="no"?>
<!-- Created with Inkscape (http://www.inkscape.org/) -->

<svg
   xmlns:dc="http://purl.org/dc/elements/1.1/"
   xmlns:cc="http://creativecommons.org/ns#"
   xmlns:rdf="http://www.w3.org/1999/02/22-rdf-syntax-ns#"
   xmlns:svg="http://www.w3.org/2000/svg"
   xmlns="http://www.w3.org/2000/svg"
   xmlns:sodipodi="http://sodipodi.sourceforge.net/DTD/sodipodi-0.dtd"
   xmlns:inkscape="http://www.inkscape.org/namespaces/inkscape"
   width="744.09448819"
   height="1052.3622047"
   id="svg4026"
   version="1.1"
   inkscape:version="0.48.4 r9939"
   sodipodi:docname="drawing.svg">
  <defs
     id="defs4028" />
  <sodipodi:namedview
     id="base"
     pagecolor="#ffffff"
     bordercolor="#666666"
     borderopacity="1.0"
     inkscape:pageopacity="0.0"
     inkscape:pageshadow="2"
     inkscape:zoom="0.98994949"
     inkscape:cx="491.58592"
     inkscape:cy="183.92203"
     inkscape:document-units="px"
     inkscape:current-layer="layer1"
     showgrid="false"
     inkscape:window-width="959"
     inkscape:window-height="744"
     inkscape:window-x="65"
     inkscape:window-y="24"
     inkscape:window-maximized="1" />
  <metadata
     id="metadata4031">
    <rdf:RDF>
      <cc:Work
         rdf:about="">
        <dc:format>image/svg+xml</dc:format>
        <dc:type
           rdf:resource="http://purl.org/dc/dcmitype/StillImage" />
        <dc:title></dc:title>
      </cc:Work>
    </rdf:RDF>
  </metadata>
  <g
     inkscape:label="Layer 1"
     inkscape:groupmode="layer"
     id="layer1">
    <path
       style="fill:none;stroke:#000000;stroke-width:2;stroke-linecap:butt;stroke-linejoin:miter;stroke-miterlimit:4;stroke-opacity:1;stroke-dasharray:none"
       d="m 183.35714,323.79075 120,0 120,0 120,0 0,120 0,120 0,120 -360,0 z"
       id="path2995"
       inkscape:connector-curvature="0" />
    <path
       style="fill:none;stroke:#000000;stroke-width:1px;stroke-linecap:butt;stroke-linejoin:miter;stroke-opacity:1"
       d="m 222.35714,323.79075 0,360"
       id="path2997"
       inkscape:connector-curvature="0" />
    <path
       style="fill:none;stroke:#000000;stroke-width:1px;stroke-linecap:butt;stroke-linejoin:miter;stroke-opacity:1"
       d="m 262.35714,683.79075 0,-360"
       id="path2999"
       inkscape:connector-curvature="0" />
    <path
       style="fill:none;stroke:#000000;stroke-width:2;stroke-linecap:butt;stroke-linejoin:miter;stroke-miterlimit:4;stroke-opacity:1;stroke-dasharray:none"
       d="m 302.35714,323.79075 0,360"
       id="path3001"
       inkscape:connector-curvature="0" />
    <path
       style="fill:none;stroke:#000000;stroke-width:1px;stroke-linecap:butt;stroke-linejoin:miter;stroke-opacity:1"
       d="m 342.35714,683.79075 0,-360"
       id="path3003"
       inkscape:connector-curvature="0" />
    <path
       style="fill:none;stroke:#000000;stroke-width:1px;stroke-linecap:butt;stroke-linejoin:miter;stroke-opacity:1"
       d="m 382.35714,323.79075 0,360"
       id="path3005"
       inkscape:connector-curvature="0" />
    <path
       style="fill:none;stroke:#000000;stroke-width:2;stroke-linecap:butt;stroke-linejoin:miter;stroke-miterlimit:4;stroke-opacity:1;stroke-dasharray:none"
       d="m 422.35714,683.79075 0,-360"
       id="path3007"
       inkscape:connector-curvature="0" />
    <path
       style="fill:none;stroke:#000000;stroke-width:1px;stroke-linecap:butt;stroke-linejoin:miter;stroke-opacity:1"
       d="m 462.35714,323.79075 0,360"
       id="path3009"
       inkscape:connector-curvature="0" />
    <path
       style="fill:none;stroke:#000000;stroke-width:1px;stroke-linecap:butt;stroke-linejoin:miter;stroke-opacity:1"
       d="m 502.35714,683.79075 0,-360"
       id="path3011"
       inkscape:connector-curvature="0" />
    <path
       style="fill:none;stroke:#000000;stroke-width:1px;stroke-linecap:butt;stroke-linejoin:miter;stroke-opacity:1"
       d="m 182.35714,363.79075 360,0"
       id="path3013"
       inkscape:connector-curvature="0" />
    <path
       style="fill:none;stroke:#000000;stroke-width:1px;stroke-linecap:butt;stroke-linejoin:miter;stroke-opacity:1"
       d="m 542.35714,403.79075 -360,0"
       id="path3015"
       inkscape:connector-curvature="0" />
    <path
       style="fill:none;stroke:#000000;stroke-width:2;stroke-linecap:butt;stroke-linejoin:miter;stroke-miterlimit:4;stroke-opacity:1;stroke-dasharray:none"
       d="m 182.35714,443.79075 360,0"
       id="path3017"
       inkscape:connector-curvature="0" />
    <path
       style="fill:none;stroke:#000000;stroke-width:1px;stroke-linecap:butt;stroke-linejoin:miter;stroke-opacity:1"
       d="m 542.35714,483.79075 -360,0"
       id="path3019"
       inkscape:connector-curvature="0" />
    <path
       style="fill:none;stroke:#000000;stroke-width:1px;stroke-linecap:butt;stroke-linejoin:miter;stroke-opacity:1"
       d="m 182.35714,523.79075 360,0"
       id="path3021"
       inkscape:connector-curvature="0" />
    <path
       style="fill:none;stroke:#000000;stroke-width:2;stroke-linecap:butt;stroke-linejoin:miter;stroke-miterlimit:4;stroke-opacity:1;stroke-dasharray:none"
       d="m 542.35714,563.79075 -360,0"
       id="path3023"
       inkscape:connector-curvature="0" />
    <path
       style="fill:none;stroke:#000000;stroke-width:1px;stroke-linecap:butt;stroke-linejoin:miter;stroke-opacity:1"
       d="m 182.35714,603.79075 360,0"
       id="path3025"
       inkscape:connector-curvature="0" />
    <path
       style="fill:#ffff00;stroke:#000000;stroke-width:1px;stroke-linecap:butt;stroke-linejoin:miter;stroke-opacity:1"
       d="m 542.35714,643.79075 -360,0"
       id="path3027"
       inkscape:connector-curvature="0" />
    <path
       style="fill:#ffff00"
       d="m 184.08325,343.89396 0,-18.92857 18.57143,0 18.57143,0 0,18.92857 0,18.92857 -18.57143,0 -18.57143,0 0,-18.92857 z"
       id="path3048"
       inkscape:connector-curvature="0" />
    <path
       style="fill:#ffff00"
       d="m 223.36897,343.89396 0,-18.92857 18.92857,0 18.92857,0 0,18.92857 0,18.92857 -18.92857,0 -18.92857,0 0,-18.92857 z"
       id="path3050"
       inkscape:connector-curvature="0" />
    <path
       style="fill:#ffff00"
       d="m 263.36897,343.89396 0,-18.92857 18.92857,0 18.92857,0 0,18.92857 0,18.92857 -18.92857,0 -18.92857,0 0,-18.92857 z"
       id="path3052"
       inkscape:connector-curvature="0" />
    <path
       style="fill:#ffff00"
       d="m 343.36897,343.89396 0,-18.92857 18.92857,0 18.92857,0 0,18.92857 0,18.92857 -18.92857,0 -18.92857,0 0,-18.92857 z"
       id="path3054"
       inkscape:connector-curvature="0" />
    <path
       style="fill:#ffff00"
       d="m 383.36897,343.89396 0,-18.92857 18.92857,0 18.92857,0 0,18.92857 0,18.92857 -18.92857,0 -18.92857,0 0,-18.92857 z"
       id="path3056"
       inkscape:connector-curvature="0" />
    <path
       style="fill:#ffff00"
       d="m 423.36897,343.89396 0,-18.92857 18.92857,0 18.92857,0 0,18.92857 0,18.92857 -18.92857,0 -18.92857,0 0,-18.92857 z"
       id="path3058"
       inkscape:connector-curvature="0" />
    <path
       style="fill:#ffff00"
       d="m 463.36897,343.89396 0,-18.92857 18.92857,0 18.92857,0 0,18.92857 0,18.92857 -18.92857,0 -18.92857,0 0,-18.92857 z"
       id="path3060"
       inkscape:connector-curvature="0" />
    <path
       style="fill:#ffff00"
       d="m 503.36897,343.89396 0,-18.92857 19.64285,0 19.64286,0 0,18.92857 0,18.92857 -19.64286,0 -19.64285,0 0,-18.92857 z"
       id="path3062"
       inkscape:connector-curvature="0" />
    <path
       style="fill:#ffff00"
       d="m 184.08325,383.89396 0,-18.92857 18.57143,0 18.57143,0 0,18.92857 0,18.92857 -18.57143,0 -18.57143,0 0,-18.92857 z"
       id="path3064"
       inkscape:connector-curvature="0" />
    <path
       style="fill:#ffff00"
       d="m 184.08325,503.89396 0,-18.92857 18.57143,0 18.57143,0 0,18.92857 0,18.92857 -18.57143,0 -18.57143,0 0,-18.92857 z"
       id="path3066"
       inkscape:connector-curvature="0" />
    <path
       style="fill:#ffff00"
       d="m 184.08325,623.89396 0,-18.92857 18.57143,0 18.57143,0 0,18.92857 0,18.92857 -18.57143,0 -18.57143,0 0,-18.92857 z"
       id="path3068"
       inkscape:connector-curvature="0" />
    <path
       style="fill:#ffff00;stroke-width:2;stroke-miterlimit:4;stroke-dasharray:none"
       d="m 223.36897,464.17968 0,-18.92857 18.92857,0 18.92857,0 0,18.92857 0,18.92857 -18.92857,0 -18.92857,0 0,-18.92857 z"
       id="path3838"
       inkscape:connector-curvature="0" />
    <path
       style="fill:#ffff00;stroke-width:2;stroke-miterlimit:4;stroke-dasharray:none"
       d="m 223.36897,503.82253 0,-19.28571 18.92857,0 18.92857,0 0,19.28571 0,19.28572 -18.92857,0 -18.92857,0 0,-19.28572 z"
       id="path3840"
       inkscape:connector-curvature="0" />
    <path
       style="fill:#ffff00;stroke-width:2;stroke-miterlimit:4;stroke-dasharray:none"
       d="m 223.36897,623.82253 0,-19.28571 18.92857,0 18.92857,0 0,19.28571 0,19.28572 -18.92857,0 -18.92857,0 0,-19.28572 z"
       id="path3842"
       inkscape:connector-curvature="0" />
    <path
       style="fill:#ffff00;stroke-width:2;stroke-miterlimit:4;stroke-dasharray:none"
       d="m 343.36897,584.17968 0,-18.92857 18.92857,0 18.92857,0 0,18.92857 0,18.92857 -18.92857,0 -18.92857,0 0,-18.92857 z"
       id="path3844"
       inkscape:connector-curvature="0" />
    <path
       style="fill:#ffff00;stroke-width:2;stroke-miterlimit:4;stroke-dasharray:none"
       d="m 383.36897,584.17968 0,-18.92857 18.92857,0 18.92857,0 0,18.92857 0,18.92857 -18.92857,0 -18.92857,0 0,-18.92857 z"
       id="path3846"
       inkscape:connector-curvature="0" />
    <path
       style="fill:#ffff00"
       d="m 303.36896,543.46539 0,-18.92857 18.92857,0 18.92858,0 0,18.92857 0,18.92857 -18.92858,0 -18.92857,0 0,-18.92857 z"
       id="path3016"
       inkscape:connector-curvature="0" />
    <path
       style="fill:#ffff00"
       d="m 343.36896,543.46539 0,-18.92857 18.92857,0 18.92858,0 0,18.92857 0,18.92857 -18.92858,0 -18.92857,0 0,-18.92857 z"
       id="path3018"
       inkscape:connector-curvature="0" />
    <path
       style="fill:#ffff00"
       d="m 343.36896,464.17968 0,-18.92858 18.92857,0 18.92858,0 0,18.92858 0,18.92857 -18.92858,0 -18.92857,0 0,-18.92857 z"
       id="path3020"
       inkscape:connector-curvature="0" />
    <path
       style="fill:#ffff00"
       d="m 383.36896,464.17968 0,-18.92858 18.92857,0 18.92858,0 0,18.92858 0,18.92857 -18.92858,0 -18.92857,0 0,-18.92857 z"
       id="path3022"
       inkscape:connector-curvature="0" />
    <path
       style="fill:#ffff00"
       d="m 303.36896,423.46539 0,-18.92857 18.92857,0 18.92858,0 0,18.92857 0,18.92857 -18.92858,0 -18.92857,0 0,-18.92857 z"
       id="path3024"
       inkscape:connector-curvature="0" />
    <path
       style="fill:#ffff00"
       d="m 343.36896,423.46539 0,-18.92857 18.92857,0 18.92858,0 0,18.92857 0,18.92857 -18.92858,0 -18.92857,0 0,-18.92857 z"
       id="path3026"
       inkscape:connector-curvature="0" />
    <path
       style="fill:#ffff00"
       d="m 463.36896,423.46539 0,-18.92857 18.92857,0 18.92858,0 0,18.92857 0,18.92857 -18.92858,0 -18.92857,0 0,-18.92857 z"
       id="path3028"
       inkscape:connector-curvature="0" />
    <path
       style="fill:#ffff00"
       d="m 463.36896,464.17968 0,-18.92858 18.92857,0 18.92858,0 0,18.92858 0,18.92857 -18.92858,0 -18.92857,0 0,-18.92857 z"
       id="path3030"
       inkscape:connector-curvature="0" />
    <path
       style="fill:#ffff00"
       d="m 463.36896,584.17968 0,-18.92858 18.92857,0 18.92858,0 0,18.92858 0,18.92857 -18.92858,0 -18.92857,0 0,-18.92857 z"
       id="path3032"
       inkscape:connector-curvature="0" />
    <path
       style="fill:#ffff00"
       d="m 463.36896,623.82253 0,-19.28571 18.92857,0 18.92858,0 0,19.28571 0,19.28572 -18.92858,0 -18.92857,0 0,-19.28572 z"
       id="path3034"
       inkscape:connector-curvature="0" />
    <path
       style="fill:#00ffff"
       d="m 503.36896,623.82253 0,-19.28571 19.28572,0 19.28571,0 0,19.28571 0,19.28572 -19.28571,0 -19.28572,0 0,-19.28572 z"
       id="path3036"
       inkscape:connector-curvature="0" />
    <path
       style="fill:#00ffff"
       d="m 503.36896,663.46539 0,-18.92857 19.28572,0 19.28571,0 0,18.92857 0,18.92857 -19.28571,0 -19.28572,0 0,-18.92857 z"
       id="path3038"
       inkscape:connector-curvature="0" />
    <path
       style="fill:#00ffff"
       d="m 463.36896,663.46539 0,-18.92857 18.92857,0 18.92858,0 0,18.92857 0,18.92857 -18.92858,0 -18.92857,0 0,-18.92857 z"
       id="path3040"
       inkscape:connector-curvature="0" />
    <path
       style="fill:#00ffff"
       d="m 423.36896,663.46539 0,-18.92857 18.92857,0 18.92858,0 0,18.92857 0,18.92857 -18.92858,0 -18.92857,0 0,-18.92857 z"
       id="path3042"
       inkscape:connector-curvature="0" />
    <path
       style="fill:#00ffff"
       d="m 503.36896,464.17968 0,-18.92858 19.28572,0 19.28571,0 0,18.92858 0,18.92857 -19.28571,0 -19.28572,0 0,-18.92857 z"
       id="path3044"
       inkscape:connector-curvature="0" />
    <path
       style="fill:#00ffff"
       d="m 503.36896,423.46539 0,-18.92857 19.28572,0 19.28571,0 0,18.92857 0,18.92857 -19.28571,0 -19.28572,0 0,-18.92857 z"
       id="path3046"
       inkscape:connector-curvature="0" />
    <path
       style="fill:#00ffff"
       d="m 423.36896,464.17968 0,-18.92858 18.92857,0 18.92858,0 0,18.92858 0,18.92857 -18.92858,0 -18.92857,0 0,-18.92857 z"
       id="path3049"
       inkscape:connector-curvature="0" />
    <path
       style="fill:#00ffff"
       d="m 423.36896,503.82253 0,-19.28571 18.92857,0 18.92858,0 0,19.28571 0,19.28572 -18.92858,0 -18.92857,0 0,-19.28572 z"
       id="path3051"
       inkscape:connector-curvature="0" />
    <path
       style="fill:#00ffff"
       d="m 303.36896,584.17968 0,-18.92858 18.92857,0 18.92858,0 0,18.92858 0,18.92857 -18.92858,0 -18.92857,0 0,-18.92857 z"
       id="path3053"
       inkscape:connector-curvature="0" />
    <path
       style="fill:#00ffff"
       d="m 263.36896,584.17968 0,-18.92858 18.92857,0 18.92858,0 0,18.92858 0,18.92857 -18.92858,0 -18.92857,0 0,-18.92857 z"
       id="path3055"
       inkscape:connector-curvature="0" />
    <path
       style="fill:#00ffff"
       d="m 263.36896,623.82253 0,-19.28571 18.92857,0 18.92858,0 0,19.28571 0,19.28572 -18.92858,0 -18.92857,0 0,-19.28572 z"
       id="path3057"
       inkscape:connector-curvature="0" />
    <path
       style="fill:#00ffff"
       d="m 184.79753,543.46539 0,-18.92857 18.21429,0 18.21429,0 0,18.92857 0,18.92857 -18.21429,0 -18.21429,0 0,-18.92857 z"
       id="path3059"
       inkscape:connector-curvature="0" />
    <path
       style="fill:#00ffff"
       d="m 184.79753,584.17968 0,-18.92858 18.21429,0 18.21429,0 0,18.92858 0,18.92857 -18.21429,0 -18.21429,0 0,-18.92857 z"
       id="path3061"
       inkscape:connector-curvature="0" />
    <path
       style="fill:#00ffff"
       d="m 263.36896,423.46539 0,-18.92857 18.92857,0 18.92858,0 0,18.92857 0,18.92857 -18.92858,0 -18.92857,0 0,-18.92857 z"
       id="path3063"
       inkscape:connector-curvature="0" />
    <path
       style="fill:#00ffff"
       d="m 263.36896,464.17968 0,-18.92858 18.92857,0 18.92858,0 0,18.92858 0,18.92857 -18.92858,0 -18.92857,0 0,-18.92857 z"
       id="path3065"
       inkscape:connector-curvature="0" />
    <path
       style="fill:#00ff00"
       d="m 184.79753,423.46539 0,-18.92857 18.21429,0 18.21429,0 0,18.92857 0,18.92857 -18.21429,0 -18.21429,0 0,-18.92857 z"
       id="path3067"
       inkscape:connector-curvature="0" />
    <path
       style="fill:#00ff00"
       d="m 184.79753,464.17968 0,-18.92858 18.21429,0 18.21429,0 0,18.92858 0,18.92857 -18.21429,0 -18.21429,0 0,-18.92857 z"
       id="path3069"
       inkscape:connector-curvature="0" />
    <path
       style="fill:#00ff00"
       d="m 263.36896,383.82253 0,-19.28571 18.92857,0 18.92858,0 0,19.28571 0,19.28572 -18.92858,0 -18.92857,0 0,-19.28572 z"
       id="path3071"
       inkscape:connector-curvature="0" />
    <path
       style="fill:#00ff00"
       d="m 303.36896,344.17968 0,-18.92858 18.92857,0 18.92858,0 0,18.92858 0,18.92857 -18.92858,0 -18.92857,0 0,-18.92857 z"
       id="path3073"
       inkscape:connector-curvature="0" />
    <path
       style="fill:#00ff00"
       d="m 303.36896,383.82253 0,-19.28571 18.92857,0 18.92858,0 0,19.28571 0,19.28572 -18.92858,0 -18.92857,0 0,-19.28572 z"
       id="path3075"
       inkscape:connector-curvature="0" />
    <path
       style="fill:#00ff00"
       d="m 343.36896,383.82253 0,-19.28571 18.92857,0 18.92858,0 0,19.28571 0,19.28572 -18.92858,0 -18.92857,0 0,-19.28572 z"
       id="path3077"
       inkscape:connector-curvature="0" />
    <path
       style="fill:#00ff00"
       d="m 383.36896,383.82253 0,-19.28571 18.92857,0 18.92858,0 0,19.28571 0,19.28572 -18.92858,0 -18.92857,0 0,-19.28572 z"
       id="path3079"
       inkscape:connector-curvature="0" />
    <path
       style="fill:#00ff00"
       d="m 303.36896,623.82253 0,-19.28571 18.92857,0 18.92858,0 0,19.28571 0,19.28572 -18.92858,0 -18.92857,0 0,-19.28572 z"
       id="path3081"
       inkscape:connector-curvature="0" />
    <path
       style="fill:#00ff00"
       d="m 383.36896,623.82253 0,-19.28571 18.92857,0 18.92858,0 0,19.28571 0,19.28572 -18.92858,0 -18.92857,0 0,-19.28572 z"
       id="path3083"
       inkscape:connector-curvature="0" />
    <path
       style="fill:#00ff00"
       d="m 343.36896,623.82253 0,-19.28571 18.92857,0 18.92858,0 0,19.28571 0,19.28572 -18.92858,0 -18.92857,0 0,-19.28572 z"
       id="path3085"
       inkscape:connector-curvature="0" />
    <path
       style="fill:#00ff00"
       d="m 383.36896,663.46539 0,-18.92857 18.92857,0 18.92858,0 0,18.92857 0,18.92857 -18.92858,0 -18.92857,0 0,-18.92857 z"
       id="path3087"
       inkscape:connector-curvature="0" />
    <path
       style="fill:#00ff00"
       d="m 223.36896,543.46539 0,-18.92857 18.92857,0 18.92858,0 0,18.92857 0,18.92857 -18.92858,0 -18.92857,0 0,-18.92857 z"
       id="path3089"
       inkscape:connector-curvature="0" />
    <path
       style="fill:#00ff00"
       d="m 223.36896,584.17968 0,-18.92858 18.92857,0 18.92858,0 0,18.92858 0,18.92857 -18.92858,0 -18.92857,0 0,-18.92857 z"
       id="path3091"
       inkscape:connector-curvature="0" />
    <path
       style="fill:#00ff00"
       d="m 423.36896,623.82253 0,-19.28571 18.92857,0 18.92858,0 0,19.28571 0,19.28572 -18.92858,0 -18.92857,0 0,-19.28572 z"
       id="path3093"
       inkscape:connector-curvature="0" />
    <path
       style="fill:#00ff00"
       d="m 463.36896,543.46539 0,-18.92857 18.92857,0 18.92858,0 0,18.92857 0,18.92857 -18.92858,0 -18.92857,0 0,-18.92857 z"
       id="path3095"
       inkscape:connector-curvature="0" />
    <path
       style="fill:#00ff00"
       d="m 463.36896,503.82253 0,-19.28571 18.92857,0 18.92858,0 0,19.28571 0,19.28572 -18.92858,0 -18.92857,0 0,-19.28572 z"
       id="path3097"
       inkscape:connector-curvature="0" />
    <path
       style="fill:#00ff00"
       d="m 503.36896,503.82253 0,-19.28571 19.28572,0 19.28571,0 0,19.28571 0,19.28572 -19.28571,0 -19.28572,0 0,-19.28572 z"
       id="path3099"
       inkscape:connector-curvature="0" />
    <path
       style="fill:#00ff00"
       d="m 463.36896,383.82253 0,-19.28571 18.92857,0 18.92858,0 0,19.28571 0,19.28572 -18.92858,0 -18.92857,0 0,-19.28572 z"
       id="path3101"
       inkscape:connector-curvature="0" />
    <path
       style="fill:#00ff00"
       d="m 503.36896,383.82253 0,-19.28571 19.28572,0 19.28571,0 0,19.28571 0,19.28572 -19.28571,0 -19.28572,0 0,-19.28572 z"
       id="path3103"
       inkscape:connector-curvature="0" />
    <path
       style="fill:#b3b3b3"
       d="m 223.36896,663.46539 0,-18.92857 18.92857,0 18.92858,0 0,18.92857 0,18.92857 -18.92858,0 -18.92857,0 0,-18.92857 z"
       id="path3105"
       inkscape:connector-curvature="0" />
    <path
       style="fill:#b3b3b3"
       d="m 263.36896,663.46539 0,-18.92857 18.92857,0 18.92858,0 0,18.92857 0,18.92857 -18.92858,0 -18.92857,0 0,-18.92857 z"
       id="path3107"
       inkscape:connector-curvature="0" />
    <path
       style="fill:#b3b3b3"
       d="m 184.79753,663.46539 0,-18.92857 18.21429,0 18.21429,0 0,18.92857 0,18.92857 -18.21429,0 -18.21429,0 0,-18.92857 z"
       id="path3109"
       inkscape:connector-curvature="0" />
    <path
       style="fill:#b3b3b3"
       d="m 303.36896,663.46539 0,-18.92857 18.92857,0 18.92858,0 0,18.92857 0,18.92857 -18.92858,0 -18.92857,0 0,-18.92857 z"
       id="path3111"
       inkscape:connector-curvature="0" />
    <path
       style="fill:#b3b3b3"
       d="m 343.36896,663.46539 0,-18.92857 18.92857,0 18.92858,0 0,18.92857 0,18.92857 -18.92858,0 -18.92857,0 0,-18.92857 z"
       id="path3113"
       inkscape:connector-curvature="0" />
    <path
       style="fill:#b3b3b3"
       d="m 263.36896,543.46539 0,-18.92857 18.92857,0 18.92858,0 0,18.92857 0,18.92857 -18.92858,0 -18.92857,0 0,-18.92857 z"
       id="path3115"
       inkscape:connector-curvature="0" />
    <path
       style="fill:#b3b3b3"
       d="m 263.36896,503.82253 0,-19.28571 18.92857,0 18.92858,0 0,19.28571 0,19.28572 -18.92858,0 -18.92857,0 0,-19.28572 z"
       id="path3117"
       inkscape:connector-curvature="0" />
    <path
       style="fill:#b3b3b3"
       d="m 223.36896,423.46539 0,-18.92857 18.92857,0 18.92858,0 0,18.92857 0,18.92857 -18.92858,0 -18.92857,0 0,-18.92857 z"
       id="path3119"
       inkscape:connector-curvature="0" />
    <path
       style="fill:#b3b3b3"
       d="m 232.87595,404.00257 c 5.42528,-0.1215 14.10385,-0.12119 19.28572,6.9e-4 5.18187,0.12188 0.74301,0.22129 -9.86414,0.2209 -10.60714,-3.8e-4 -14.84685,-0.1001 -9.42158,-0.22159 z"
       id="path3121"
       inkscape:connector-curvature="0" />
    <path
       style="fill:#b3b3b3"
       d="m 223.36896,383.82253 0,-19.28571 18.92857,0 18.92858,0 0,19.28571 0,19.28572 -18.92858,0 -18.92857,0 0,-19.28572 z"
       id="path3123"
       inkscape:connector-curvature="0" />
    <path
       style="fill:#b3b3b3"
       d="m 303.36896,464.17968 0,-18.92858 18.92857,0 18.92858,0 0,18.92858 0,18.92857 -18.92858,0 -18.92857,0 0,-18.92857 z"
       id="path3125"
       inkscape:connector-curvature="0" />
    <path
       style="fill:#b3b3b3"
       d="m 303.36896,503.82253 0,-19.28571 18.92857,0 18.92858,0 0,19.28571 0,19.28572 -18.92858,0 -18.92857,0 0,-19.28572 z"
       id="path3127"
       inkscape:connector-curvature="0" />
    <path
       style="fill:#b3b3b3"
       d="m 343.36896,503.82253 0,-19.28571 18.92857,0 18.92858,0 0,19.28571 0,19.28572 -18.92858,0 -18.92857,0 0,-19.28572 z"
       id="path3129"
       inkscape:connector-curvature="0" />
    <path
       style="fill:#00ff00"
       d="m 383.36896,503.82253 0,-19.28571 18.92857,0 18.92858,0 0,19.28571 0,19.28572 -18.92858,0 -18.92857,0 0,-19.28572 z"
       id="path3131"
       inkscape:connector-curvature="0" />
    <path
       style="fill:#00ff00"
       d="m 343.36896,503.82253 0,-19.28571 18.92857,0 18.92858,0 0,19.28571 0,19.28572 -18.92858,0 -18.92857,0 0,-19.28572 z"
       id="path3133"
       inkscape:connector-curvature="0" />
    <path
       style="fill:#00ff00"
       d="m 303.36896,503.82253 0,-19.28571 18.92857,0 18.92858,0 0,19.28571 0,19.28572 -18.92858,0 -18.92857,0 0,-19.28572 z"
       id="path3135"
       inkscape:connector-curvature="0" />
    <path
       style="fill:#00ff00"
       d="m 303.36896,464.17968 0,-18.92858 18.92857,0 18.92858,0 0,18.92858 0,18.92857 -18.92858,0 -18.92857,0 0,-18.92857 z"
       id="path3137"
       inkscape:connector-curvature="0" />
    <path
       style="fill:#00ff00"
       d="m 383.36896,543.46539 0,-18.92857 18.92857,0 18.92858,0 0,18.92857 0,18.92857 -18.92858,0 -18.92857,0 0,-18.92857 z"
       id="path3139"
       inkscape:connector-curvature="0" />
    <path
       style="fill:#b3b3b3"
       d="m 383.36896,423.46539 0,-18.92857 18.92857,0 18.92858,0 0,18.92857 0,18.92857 -18.92858,0 -18.92857,0 0,-18.92857 z"
       id="path3141"
       inkscape:connector-curvature="0" />
    <path
       style="fill:#b3b3b3"
       d="m 423.36896,423.46539 0,-18.92857 18.92857,0 18.92858,0 0,18.92857 0,18.92857 -18.92858,0 -18.92857,0 0,-18.92857 z"
       id="path3143"
       inkscape:connector-curvature="0" />
    <path
       style="fill:#b3b3b3"
       d="m 423.36896,383.82253 0,-19.28571 18.92857,0 18.92858,0 0,19.28571 0,19.28572 -18.92858,0 -18.92857,0 0,-19.28572 z"
       id="path3145"
       inkscape:connector-curvature="0" />
    <path
       style="fill:#b3b3b3"
       d="m 423.36896,543.46539 0,-18.92857 18.92857,0 18.92858,0 0,18.92857 0,18.92857 -18.92858,0 -18.92857,0 0,-18.92857 z"
       id="path3147"
       inkscape:connector-curvature="0" />
    <path
       style="fill:#b3b3b3"
       d="m 423.36896,584.17968 0,-18.92858 18.92857,0 18.92858,0 0,18.92858 0,18.92857 -18.92858,0 -18.92857,0 0,-18.92857 z"
       id="path3149"
       inkscape:connector-curvature="0" />
    <path
       style="fill:#b3b3b3"
       d="m 503.36896,543.46539 0,-18.92857 19.28572,0 19.28571,0 0,18.92857 0,18.92857 -19.28571,0 -19.28572,0 0,-18.92857 z"
       id="path3151"
       inkscape:connector-curvature="0" />
    <path
       style="fill:#b3b3b3"
       d="m 503.36896,584.17968 0,-18.92858 19.28572,0 19.28571,0 0,18.92858 0,18.92857 -19.28571,0 -19.28572,0 0,-18.92857 z"
       id="path3153"
       inkscape:connector-curvature="0" />
    <text
       xml:space="preserve"
       style="font-size:10px;font-style:normal;font-weight:normal;line-height:125%;letter-spacing:0px;word-spacing:0px;fill:#000000;fill-opacity:1;stroke:none;font-family:Sans"
       x="184.49759"
       y="334.53009"
       id="text3085"
       sodipodi:linespacing="125%"><tspan
         sodipodi:role="line"
         id="tspan3087"
         x="184.49759"
         y="334.53009">12</tspan></text>
    <text
       xml:space="preserve"
       style="font-size:10px;font-style:normal;font-weight:normal;line-height:125%;letter-spacing:0px;word-spacing:0px;fill:#000000;fill-opacity:1;stroke:none;font-family:Sans"
       x="222.16507"
       y="373.62952"
       id="text3089"
       sodipodi:linespacing="125%"><tspan
         sodipodi:role="line"
         x="222.16507"
         y="373.62952"
         id="tspan3093">15</tspan></text>
    <text
       xml:space="preserve"
       style="font-size:10px;font-style:normal;font-weight:normal;line-height:125%;letter-spacing:0px;word-spacing:0px;fill:#000000;fill-opacity:1;stroke:none;font-family:Sans"
       x="184.66895"
       y="412.99194"
       id="text3097"
       sodipodi:linespacing="125%"><tspan
         sodipodi:role="line"
         id="tspan3099"
         x="184.66895"
         y="412.99194">15</tspan></text>
    <text
       xml:space="preserve"
       style="font-size:10px;font-style:normal;font-weight:normal;line-height:125%;letter-spacing:0px;word-spacing:0px;fill:#000000;fill-opacity:1;stroke:none;font-family:Sans"
       x="223.94696"
       y="453.07648"
       id="text3101"
       sodipodi:linespacing="125%"><tspan
         sodipodi:role="line"
         id="tspan3103"
         x="223.94696"
         y="453.07648">17</tspan></text>
    <text
       xml:space="preserve"
       style="font-size:10px;font-style:normal;font-weight:normal;line-height:125%;letter-spacing:0px;word-spacing:0px;fill:#000000;fill-opacity:1;stroke:none;font-family:Sans"
       x="263.59366"
       y="414.15173"
       id="text3105"
       sodipodi:linespacing="125%"><tspan
         sodipodi:role="line"
         id="tspan3107"
         x="263.59366"
         y="414.15173">16</tspan></text>
    <text
       xml:space="preserve"
       style="font-size:10px;font-style:normal;font-weight:normal;line-height:125%;letter-spacing:0px;word-spacing:0px;fill:#000000;fill-opacity:1;stroke:none;font-family:Sans"
       x="186.63516"
       y="532.56195"
       id="text3109"
       sodipodi:linespacing="125%"><tspan
         sodipodi:role="line"
         id="tspan3111"
         x="186.63516"
         y="532.56195">5</tspan></text>
    <text
       xml:space="preserve"
       style="font-size:10px;font-style:normal;font-weight:normal;line-height:125%;letter-spacing:0px;word-spacing:0px;fill:#000000;fill-opacity:1;stroke:none;font-family:Sans"
       x="225.19888"
       y="532.18555"
       id="text3113"
       sodipodi:linespacing="125%"><tspan
         sodipodi:role="line"
         id="tspan3115"
         x="225.19888"
         y="532.18555">6</tspan></text>
    <text
       xml:space="preserve"
       style="font-size:10px;font-style:normal;font-weight:normal;line-height:125%;letter-spacing:0px;word-spacing:0px;fill:#000000;fill-opacity:1;stroke:none;font-family:Sans"
       x="262.87164"
       y="573.61407"
       id="text3117"
       sodipodi:linespacing="125%"><tspan
         sodipodi:role="line"
         id="tspan3119"
         x="262.87164"
         y="573.61407">16</tspan></text>
    <text
       xml:space="preserve"
       style="font-size:10px;font-style:normal;font-weight:normal;line-height:125%;letter-spacing:0px;word-spacing:0px;fill:#000000;fill-opacity:1;stroke:none;font-family:Sans"
       x="184.8456"
       y="611.29462"
       id="text3121"
       sodipodi:linespacing="125%"><tspan
         sodipodi:role="line"
         id="tspan3123"
         x="184.8456"
         y="611.29462">16</tspan></text>
    <text
       xml:space="preserve"
       style="font-size:10px;font-style:normal;font-weight:normal;line-height:125%;letter-spacing:0px;word-spacing:0px;fill:#000000;fill-opacity:1;stroke:none;font-family:Sans"
       x="185.08444"
       y="652.86395"
       id="text3125"
       sodipodi:linespacing="125%"><tspan
         sodipodi:role="line"
         id="tspan3127"
         x="185.08444"
         y="652.86395">33</tspan></text>
    <text
       xml:space="preserve"
       style="font-size:10px;font-style:normal;font-weight:normal;line-height:125%;letter-spacing:0px;word-spacing:0px;fill:#000000;fill-opacity:1;stroke:none;font-family:Sans"
       x="265.58585"
       y="492.70752"
       id="text3129"
       sodipodi:linespacing="125%"><tspan
         sodipodi:role="line"
         id="tspan3131"
         x="265.58585"
         y="492.70752">5</tspan></text>
    <text
       xml:space="preserve"
       style="font-size:10px;font-style:normal;font-weight:normal;line-height:125%;letter-spacing:0px;word-spacing:0px;fill:#000000;fill-opacity:1;stroke:none;font-family:Sans"
       x="303.7583"
       y="413.67438"
       id="text3133"
       sodipodi:linespacing="125%"><tspan
         sodipodi:role="line"
         id="tspan3135"
         x="303.7583"
         y="413.67438">14</tspan></text>
    <text
       xml:space="preserve"
       style="font-size:10px;font-style:normal;font-weight:normal;line-height:125%;letter-spacing:0px;word-spacing:0px;fill:#000000;fill-opacity:1;stroke:none;font-family:Sans"
       x="304.29593"
       y="333.56592"
       id="text3137"
       sodipodi:linespacing="125%"><tspan
         sodipodi:role="line"
         id="tspan3139"
         x="304.29593"
         y="333.56592">17</tspan></text>
    <text
       xml:space="preserve"
       style="font-size:10px;font-style:normal;font-weight:normal;line-height:125%;letter-spacing:0px;word-spacing:0px;fill:#000000;fill-opacity:1;stroke:none;font-family:Sans"
       x="344.61902"
       y="334.10358"
       id="text3141"
       sodipodi:linespacing="125%"><tspan
         sodipodi:role="line"
         id="tspan3143"
         x="344.61902"
         y="334.10358">31</tspan></text>
    <text
       xml:space="preserve"
       style="font-size:10px;font-style:normal;font-weight:normal;line-height:125%;letter-spacing:0px;word-spacing:0px;fill:#000000;fill-opacity:1;stroke:none;font-family:Sans"
       x="304.29593"
       y="453.99744"
       id="text3145"
       sodipodi:linespacing="125%"><tspan
         sodipodi:role="line"
         id="tspan3147"
         x="304.29593"
         y="453.99744">23</tspan></text>
    <text
       xml:space="preserve"
       style="font-size:10px;font-style:normal;font-weight:normal;line-height:125%;letter-spacing:0px;word-spacing:0px;fill:#000000;fill-opacity:1;stroke:none;font-family:Sans"
       x="304.29596"
       y="534.64349"
       id="text3149"
       sodipodi:linespacing="125%"><tspan
         sodipodi:role="line"
         id="tspan3151"
         x="304.29596"
         y="534.64349">24</tspan></text>
    <text
       xml:space="preserve"
       style="font-size:10px;font-style:normal;font-weight:normal;line-height:125%;letter-spacing:0px;word-spacing:0px;fill:#000000;fill-opacity:1;stroke:none;font-family:Sans"
       x="304.29593"
       y="614.75189"
       id="text3153"
       sodipodi:linespacing="125%"><tspan
         sodipodi:role="line"
         id="tspan3155"
         x="304.29593"
         y="614.75189">17</tspan></text>
    <text
       xml:space="preserve"
       style="font-size:10px;font-style:normal;font-weight:normal;line-height:125%;letter-spacing:0px;word-spacing:0px;fill:#000000;fill-opacity:1;stroke:none;font-family:Sans"
       x="424.72742"
       y="373.88898"
       id="text3157"
       sodipodi:linespacing="125%"><tspan
         sodipodi:role="line"
         id="tspan3159"
         x="424.72742"
         y="373.88898">15</tspan></text>
    <text
       xml:space="preserve"
       style="font-size:10px;font-style:normal;font-weight:normal;line-height:125%;letter-spacing:0px;word-spacing:0px;fill:#000000;fill-opacity:1;stroke:none;font-family:Sans"
       x="464.51282"
       y="373.88892"
       id="text3161"
       sodipodi:linespacing="125%"><tspan
         sodipodi:role="line"
         id="tspan3163"
         x="464.51282"
         y="373.88892">16</tspan></text>
    <text
       xml:space="preserve"
       style="font-size:10px;font-style:normal;font-weight:normal;line-height:125%;letter-spacing:0px;word-spacing:0px;fill:#000000;fill-opacity:1;stroke:none;font-family:Sans"
       x="465.05048"
       y="414.21198"
       id="text3165"
       sodipodi:linespacing="125%"><tspan
         sodipodi:role="line"
         id="tspan3167"
         x="465.05048"
         y="414.21198">6</tspan></text>
    <text
       xml:space="preserve"
       style="font-size:10px;font-style:normal;font-weight:normal;line-height:125%;letter-spacing:0px;word-spacing:0px;fill:#000000;fill-opacity:1;stroke:none;font-family:Sans"
       x="506.44873"
       y="415.28729"
       id="text3169"
       sodipodi:linespacing="125%"><tspan
         sodipodi:role="line"
         id="tspan3171"
         x="506.44873"
         y="415.28729">6</tspan></text>
    <text
       xml:space="preserve"
       style="font-size:10px;font-style:normal;font-weight:normal;line-height:125%;letter-spacing:0px;word-spacing:0px;fill:#000000;fill-opacity:1;stroke:none;font-family:Sans"
       x="424.72742"
       y="454.53503"
       id="text3173"
       sodipodi:linespacing="125%"><tspan
         sodipodi:role="line"
         id="tspan3175"
         x="424.72742"
         y="454.53503">15</tspan></text>
    <text
       xml:space="preserve"
       style="font-size:10px;font-style:normal;font-weight:normal;line-height:125%;letter-spacing:0px;word-spacing:0px;fill:#000000;fill-opacity:1;stroke:none;font-family:Sans"
       x="463.43753"
       y="494.32043"
       id="text3177"
       sodipodi:linespacing="125%"><tspan
         sodipodi:role="line"
         id="tspan3179"
         x="463.43753"
         y="494.32043">13</tspan></text>
    <text
       xml:space="preserve"
       style="font-size:10px;font-style:normal;font-weight:normal;line-height:125%;letter-spacing:0px;word-spacing:0px;fill:#000000;fill-opacity:1;stroke:none;font-family:Sans"
       x="424.18979"
       y="533.56818"
       id="text3181"
       sodipodi:linespacing="125%"><tspan
         sodipodi:role="line"
         id="tspan3183"
         x="424.18979"
         y="533.56818">12</tspan></text>
    <text
       xml:space="preserve"
       style="font-size:10px;font-style:normal;font-weight:normal;line-height:125%;letter-spacing:0px;word-spacing:0px;fill:#000000;fill-opacity:1;stroke:none;font-family:Sans"
       x="504.83582"
       y="535.71875"
       id="text3185"
       sodipodi:linespacing="125%"><tspan
         sodipodi:role="line"
         id="tspan3187"
         x="504.83582"
         y="535.71875">15</tspan></text>
    <text
       xml:space="preserve"
       style="font-size:10px;font-style:normal;font-weight:normal;line-height:125%;letter-spacing:0px;word-spacing:0px;fill:#000000;fill-opacity:1;stroke:none;font-family:Sans"
       x="463.43753"
       y="575.50415"
       id="text3189"
       sodipodi:linespacing="125%"><tspan
         sodipodi:role="line"
         id="tspan3191"
         x="463.43753"
         y="575.50415">15</tspan></text>
    <text
       xml:space="preserve"
       style="font-size:10px;font-style:normal;font-weight:normal;line-height:125%;letter-spacing:0px;word-spacing:0px;fill:#000000;fill-opacity:1;stroke:none;font-family:Sans"
       x="502.6853"
       y="613.67664"
       id="text3193"
       sodipodi:linespacing="125%"><tspan
         sodipodi:role="line"
         id="tspan3195"
         x="502.6853"
         y="613.67664">10</tspan></text>
    <text
       xml:space="preserve"
       style="font-size:36.23018646px;font-style:normal;font-weight:normal;line-height:125%;letter-spacing:0px;word-spacing:0px;fill:#000000;fill-opacity:1;stroke:none;font-family:Sans"
       x="327.57565"
       y="246.57312"
       id="text3205"
       sodipodi:linespacing="125%"
       transform="scale(0.82803879,1.2076729)"><tspan
         sodipodi:role="line"
         id="tspan3207"
         x="327.57565"
         y="246.57312">Killer Sudoku</tspan></text>
    <rect
       id="rect3209"
       width="111.76976"
       height="54.744373"
       x="305.74976"
       y="729.01532"
       style="fill:#800000" />
    <text
       xml:space="preserve"
       style="font-size:30px;font-style:normal;font-weight:normal;line-height:125%;letter-spacing:0px;word-spacing:0px;fill:#ffffff;fill-opacity:1;stroke:none;font-family:Sans"
       x="315.63416"
       y="765.51154"
       id="text3211"
       sodipodi:linespacing="125%"><tspan
         sodipodi:role="line"
         id="tspan3213"
         x="315.63416"
         y="765.51154">Check</tspan></text>
  </g>
</svg>
